<svg width="31" height="31" viewBox="0 0 31 31" fill="none" xmlns="http://www.w3.org/2000/svg">
<g clip-path="url(#clip0_24714_1175)">
<path d="M9.63822 23.0923C9.71093 23.0399 9.77894 22.9813 9.84149 22.9171L20.6298 12.1289L20.5039 12.4735C20.3828 12.8123 20.3217 13.1696 20.3234 13.5294L20.3234 19.58C20.3053 20.3587 20.8502 21.0376 21.6145 21.1883C22.459 21.3189 23.2495 20.7401 23.3801 19.8955C23.3906 19.8273 23.3966 19.7584 23.3979 19.6894L23.3979 8.74796C23.3984 7.89336 22.706 7.20022 21.8514 7.19975L21.8497 7.19975L10.9083 7.19975C10.0538 7.20094 9.36195 7.89466 9.36311 8.74926C9.36321 8.81651 9.36769 8.88369 9.37651 8.95037C9.5273 9.71463 10.2061 10.2595 10.9849 10.2415L17.0355 10.2524C17.3567 10.2526 17.676 10.2027 17.9819 10.1047L18.4579 9.92416L7.71342 20.6686C7.13373 21.2068 7.03378 22.0876 7.47818 22.742C7.97793 23.4352 8.94498 23.5921 9.63822 23.0923Z" fill="white"/>
</g>
<defs>
<clipPath id="clip0_24714_1175">
<rect width="21.6263" height="21.6263" fill="white" transform="translate(30.584 15.2921) rotate(135)"/>
</clipPath>
</defs>
</svg>
